<svg width="260" height="38" viewBox="0 0 260 38" fill="none" xmlns="http://www.w3.org/2000/svg">
<path d="M5.852 24.379C5.11467 24.379 4.43333 24.2576 3.808 24.015C3.18267 23.763 2.64133 23.413 2.184 22.965C1.72667 22.517 1.36733 21.9896 1.106 21.383C0.854 20.7763 0.728 20.1136 0.728 19.395C0.728 18.6763 0.854 18.0136 1.106 17.407C1.36733 16.8003 1.72667 16.273 2.184 15.825C2.65067 15.377 3.19667 15.0316 3.822 14.789C4.44733 14.537 5.12867 14.411 5.866 14.411C6.57533 14.411 7.24267 14.5323 7.868 14.775C8.49333 15.0083 9.02067 15.363 9.45 15.839L8.792 16.497C8.39067 16.0863 7.94733 15.7923 7.462 15.615C6.97667 15.4283 6.454 15.335 5.894 15.335C5.306 15.335 4.76 15.4376 4.256 15.643C3.752 15.839 3.31333 16.1236 2.94 16.497C2.56667 16.861 2.27267 17.2903 2.058 17.785C1.85267 18.2703 1.75 18.807 1.75 19.395C1.75 19.983 1.85267 20.5243 2.058 21.019C2.27267 21.5043 2.56667 21.9336 2.94 22.307C3.31333 22.671 3.752 22.9556 4.256 23.161C4.76 23.357 5.306 23.455 5.894 23.455C6.454 23.455 6.97667 23.3616 7.462 23.175C7.94733 22.9883 8.39067 22.6896 8.792 22.279L9.45 22.937C9.02067 23.413 8.49333 23.7723 7.868 24.015C7.24267 24.2576 6.57067 24.379 5.852 24.379ZM11.5885 24.295V16.945H12.5405V18.947L12.4425 18.597C12.6478 18.037 12.9932 17.6123 13.4785 17.323C13.9638 17.0243 14.5658 16.875 15.2845 16.875V17.841C15.2472 17.841 15.2098 17.841 15.1725 17.841C15.1352 17.8316 15.0978 17.827 15.0605 17.827C14.2858 17.827 13.6792 18.065 13.2405 18.541C12.8018 19.0076 12.5825 19.675 12.5825 20.543V24.295H11.5885ZM20.2919 24.365C19.5266 24.365 18.8546 24.2063 18.2759 23.889C17.6972 23.5623 17.2446 23.119 16.9179 22.559C16.5912 21.9896 16.4279 21.341 16.4279 20.613C16.4279 19.885 16.5819 19.241 16.8899 18.681C17.2072 18.121 17.6366 17.6823 18.1779 17.365C18.7286 17.0383 19.3446 16.875 20.0259 16.875C20.7166 16.875 21.3279 17.0336 21.8599 17.351C22.4012 17.659 22.8259 18.0976 23.1339 18.667C23.4419 19.227 23.5959 19.8756 23.5959 20.613C23.5959 20.6596 23.5912 20.711 23.5819 20.767C23.5819 20.8136 23.5819 20.865 23.5819 20.921H17.1839V20.179H23.0499L22.6579 20.473C22.6579 19.941 22.5412 19.4696 22.3079 19.059C22.0839 18.639 21.7759 18.3123 21.3839 18.079C20.9919 17.8456 20.5392 17.729 20.0259 17.729C19.5219 17.729 19.0692 17.8456 18.6679 18.079C18.2666 18.3123 17.9539 18.639 17.7299 19.059C17.5059 19.479 17.3939 19.9596 17.3939 20.501V20.655C17.3939 21.215 17.5152 21.7096 17.7579 22.139C18.0099 22.559 18.3552 22.8903 18.7939 23.133C19.2419 23.3663 19.7506 23.483 20.3199 23.483C20.7679 23.483 21.1832 23.4036 21.5659 23.245C21.9579 23.0863 22.2939 22.8436 22.5739 22.517L23.1339 23.161C22.8072 23.553 22.3966 23.8516 21.9019 24.057C21.4166 24.2623 20.8799 24.365 20.2919 24.365ZM30.16 24.295V22.671L30.118 22.405V19.689C30.118 19.0636 29.9407 18.583 29.586 18.247C29.2407 17.911 28.7227 17.743 28.032 17.743C27.556 17.743 27.1034 17.8223 26.674 17.981C26.2447 18.1396 25.8807 18.3496 25.582 18.611L25.134 17.869C25.5074 17.5516 25.9554 17.309 26.478 17.141C27.0007 16.9636 27.5514 16.875 28.13 16.875C29.082 16.875 29.8147 17.113 30.328 17.589C30.8507 18.0556 31.112 18.7696 31.112 19.731V24.295H30.16ZM27.626 24.365C27.0754 24.365 26.5947 24.2763 26.184 24.099C25.7827 23.9123 25.4747 23.6603 25.26 23.343C25.0454 23.0163 24.938 22.643 24.938 22.223C24.938 21.8403 25.0267 21.495 25.204 21.187C25.3907 20.8696 25.6894 20.6176 26.1 20.431C26.52 20.235 27.08 20.137 27.78 20.137H30.314V20.879H27.808C27.0987 20.879 26.604 21.005 26.324 21.257C26.0534 21.509 25.918 21.8216 25.918 22.195C25.918 22.615 26.0814 22.951 26.408 23.203C26.7347 23.455 27.192 23.581 27.78 23.581C28.34 23.581 28.8207 23.455 29.222 23.203C29.6327 22.9416 29.9314 22.5683 30.118 22.083L30.342 22.769C30.1554 23.2543 29.8287 23.6416 29.362 23.931C28.9047 24.2203 28.326 24.365 27.626 24.365ZM36.2759 24.365C35.5852 24.365 35.0532 24.1783 34.6799 23.805C34.3065 23.4316 34.1199 22.9043 34.1199 22.223V15.321H35.1139V22.167C35.1139 22.5963 35.2212 22.9276 35.4359 23.161C35.6599 23.3943 35.9772 23.511 36.3879 23.511C36.8265 23.511 37.1905 23.385 37.4799 23.133L37.8299 23.847C37.6339 24.0243 37.3959 24.155 37.1159 24.239C36.8452 24.323 36.5652 24.365 36.2759 24.365ZM32.8039 17.771V16.945H37.3539V17.771H32.8039ZM42.6416 24.365C41.8763 24.365 41.2043 24.2063 40.6256 23.889C40.0469 23.5623 39.5943 23.119 39.2676 22.559C38.9409 21.9896 38.7776 21.341 38.7776 20.613C38.7776 19.885 38.9316 19.241 39.2396 18.681C39.5569 18.121 39.9863 17.6823 40.5276 17.365C41.0783 17.0383 41.6943 16.875 42.3756 16.875C43.0663 16.875 43.6776 17.0336 44.2096 17.351C44.7509 17.659 45.1756 18.0976 45.4836 18.667C45.7916 19.227 45.9456 19.8756 45.9456 20.613C45.9456 20.6596 45.9409 20.711 45.9316 20.767C45.9316 20.8136 45.9316 20.865 45.9316 20.921H39.5336V20.179H45.3996L45.0076 20.473C45.0076 19.941 44.8909 19.4696 44.6576 19.059C44.4336 18.639 44.1256 18.3123 43.7336 18.079C43.3416 17.8456 42.8889 17.729 42.3756 17.729C41.8716 17.729 41.4189 17.8456 41.0176 18.079C40.6163 18.3123 40.3036 18.639 40.0796 19.059C39.8556 19.479 39.7436 19.9596 39.7436 20.501V20.655C39.7436 21.215 39.8649 21.7096 40.1076 22.139C40.3596 22.559 40.7049 22.8903 41.1436 23.133C41.5916 23.3663 42.1003 23.483 42.6696 23.483C43.1176 23.483 43.5329 23.4036 43.9156 23.245C44.3076 23.0863 44.6436 22.8436 44.9236 22.517L45.4836 23.161C45.1569 23.553 44.7463 23.8516 44.2516 24.057C43.7663 24.2623 43.2296 24.365 42.6416 24.365ZM51.0348 24.365C50.3348 24.365 49.7048 24.2063 49.1448 23.889C48.5941 23.5716 48.1601 23.133 47.8428 22.573C47.5255 22.0036 47.3668 21.3503 47.3668 20.613C47.3668 19.8663 47.5255 19.213 47.8428 18.653C48.1601 18.093 48.5941 17.659 49.1448 17.351C49.7048 17.0336 50.3348 16.875 51.0348 16.875C51.6788 16.875 52.2528 17.0196 52.7568 17.309C53.2701 17.5983 53.6761 18.023 53.9748 18.583C54.2828 19.1336 54.4368 19.8103 54.4368 20.613C54.4368 21.4063 54.2875 22.083 53.9888 22.643C53.6901 23.203 53.2841 23.6323 52.7708 23.931C52.2668 24.2203 51.6881 24.365 51.0348 24.365ZM51.1048 23.483C51.6275 23.483 52.0941 23.3663 52.5048 23.133C52.9248 22.8903 53.2515 22.5543 53.4848 22.125C53.7275 21.6863 53.8488 21.1823 53.8488 20.613C53.8488 20.0343 53.7275 19.5303 53.4848 19.101C53.2515 18.6716 52.9248 18.3403 52.5048 18.107C52.0941 17.8643 51.6275 17.743 51.1048 17.743C50.5915 17.743 50.1295 17.8643 49.7188 18.107C49.3081 18.3403 48.9815 18.6716 48.7388 19.101C48.4961 19.5303 48.3748 20.0343 48.3748 20.613C48.3748 21.1823 48.4961 21.6863 48.7388 22.125C48.9815 22.5543 49.3081 22.8903 49.7188 23.133C50.1295 23.3663 50.5915 23.483 51.1048 23.483ZM53.8768 24.295V22.083L53.9748 20.599L53.8348 19.115V13.907H54.8288V24.295H53.8768ZM65.3352 24.365C64.6912 24.365 64.1125 24.2203 63.5992 23.931C63.0858 23.6323 62.6798 23.203 62.3812 22.643C62.0825 22.083 61.9332 21.4063 61.9332 20.613C61.9332 19.8103 62.0825 19.1336 62.3812 18.583C62.6892 18.023 63.0998 17.5983 63.6132 17.309C64.1265 17.0196 64.7005 16.875 65.3352 16.875C66.0352 16.875 66.6605 17.0336 67.2112 17.351C67.7712 17.659 68.2098 18.093 68.5272 18.653C68.8445 19.213 69.0032 19.8663 69.0032 20.613C69.0032 21.3503 68.8445 22.0036 68.5272 22.573C68.2098 23.133 67.7712 23.5716 67.2112 23.889C66.6605 24.2063 66.0352 24.365 65.3352 24.365ZM61.5412 24.295V13.907H62.5352V19.115L62.3952 20.599L62.4932 22.083V24.295H61.5412ZM65.2652 23.483C65.7878 23.483 66.2545 23.3663 66.6652 23.133C67.0758 22.8903 67.4025 22.5543 67.6452 22.125C67.8878 21.6863 68.0092 21.1823 68.0092 20.613C68.0092 20.0343 67.8878 19.5303 67.6452 19.101C67.4025 18.6716 67.0758 18.3403 66.6652 18.107C66.2545 17.8643 65.7878 17.743 65.2652 17.743C64.7425 17.743 64.2712 17.8643 63.8512 18.107C63.4405 18.3403 63.1138 18.6716 62.8712 19.101C62.6378 19.5303 62.5212 20.0343 62.5212 20.613C62.5212 21.1823 62.6378 21.6863 62.8712 22.125C63.1138 22.5543 63.4405 22.8903 63.8512 23.133C64.2712 23.3663 64.7425 23.483 65.2652 23.483ZM71.0204 27.081C70.675 27.081 70.3437 27.025 70.0264 26.913C69.7184 26.801 69.4524 26.633 69.2284 26.409L69.6904 25.667C69.877 25.8443 70.0777 25.9796 70.2924 26.073C70.5164 26.1756 70.7637 26.227 71.0344 26.227C71.361 26.227 71.641 26.1336 71.8744 25.947C72.117 25.7696 72.3457 25.4523 72.5604 24.995L73.0364 23.917L73.1484 23.763L76.1724 16.945H77.1524L73.4704 25.177C73.265 25.653 73.0364 26.031 72.7844 26.311C72.5417 26.591 72.2757 26.787 71.9864 26.899C71.697 27.0203 71.375 27.081 71.0204 27.081ZM72.9804 24.505L69.5924 16.945H70.6284L73.6244 23.693L72.9804 24.505Z" fill="white" fill-opacity="0.2"/>
<g clip-path="url(#clip0_13_328)">
<path d="M134.831 13.21H142.401L142.301 13.37L133.961 26.77H146.481V24.38H138.111L138.211 24.22L146.551 10.82H134.831V13.21Z" fill="white" fill-opacity="0.2"/>
<path d="M154.93 10.82H152.5V26.76H154.93V10.82Z" fill="white" fill-opacity="0.2"/>
<path d="M161.984 10.8198V26.7698H171.224V24.3598H164.414V10.8198H161.984Z" fill="white" fill-opacity="0.2"/>
<path d="M186.11 13.21V10.82H176.75V26.77H186.11V24.38H179.18V19.85H184.75V17.51H179.18V13.21H186.11Z" fill="white" fill-opacity="0.2"/>
<path d="M204.687 10.8198H202.027L197.367 21.3098L192.727 10.8198H190.047L197.367 26.7998L204.687 10.8198Z" fill="white" fill-opacity="0.2"/>
<path d="M212.75 26.95C215.76 26.95 217.79 25.15 217.79 22.46C217.79 20.48 216.63 19.04 214.14 17.94L212.89 17.37C211.18 16.63 210.49 15.89 210.49 14.79C210.49 13.58 211.65 12.93 212.73 12.93C213.81 12.93 214.6 13.31 215.46 14.31L217.13 12.57C216.01 11.25 214.61 10.63 212.74 10.63C210.43 10.63 208.04 12.19 208.04 14.8C208.04 16.82 209.24 18.37 211.62 19.41L212.89 19.96C214.62 20.72 215.3 21.48 215.3 22.67C215.3 23.86 214.33 24.64 212.71 24.64C211.46 24.64 210.18 23.94 209.28 22.75L207.43 24.3C208.49 25.95 210.46 26.93 212.73 26.93L212.75 26.95Z" fill="white" fill-opacity="0.2"/>
<path d="M224.946 10.8198H222.516V26.7598H224.946V10.8198Z" fill="white" fill-opacity="0.2"/>
<path d="M235.873 26.7698L228.443 18.8898L235.203 10.8198H232.343L225.453 19.0498L232.753 26.7698H235.873Z" fill="white" fill-opacity="0.2"/>
<path d="M249.79 10.82L245.56 17.58L241.34 10.82H238.5L244.35 20.04V26.77H246.78V20.04L246.79 20.01L252.65 10.82H249.79Z" fill="white" fill-opacity="0.2"/>
<path d="M259.821 10.82H257.391V26.76H259.821V10.82Z" fill="white" fill-opacity="0.2"/>
<path d="M108.801 15.34C108.801 14.16 108.001 13.16 106.371 13.16H103.641V17.53H106.371C108.011 17.53 108.801 16.6 108.801 15.35V15.34Z" fill="white" fill-opacity="0.2"/>
<path d="M107.183 19.77H103.633V24.41H107.183C109.003 24.41 109.893 23.45 109.893 22.11C109.893 20.77 109.003 19.77 107.183 19.77Z" fill="white" fill-opacity="0.2"/>
<path d="M122.65 16.09L117.58 26.87H114.76L122.66 10.53L127.6 20.76V0H90V37.59H127.59V26.64L122.65 16.08V16.09ZM107.18 26.87H100.99V10.72H106.7C109.63 10.72 111.46 12.75 111.46 15.13C111.46 16.59 110.94 17.56 109.96 18.27C111.48 18.91 112.55 20.23 112.55 22.23C112.55 25.05 110.3 26.87 107.18 26.87Z" fill="white" fill-opacity="0.2"/>
<path d="M215.711 32.44H217.331C218.851 32.44 220.001 33.55 220.001 34.99C220.001 36.43 218.851 37.54 217.331 37.54H215.711V32.44ZM217.331 36.76C218.431 36.76 219.151 35.99 219.151 34.99C219.151 33.99 218.421 33.22 217.331 33.22H216.551V36.77H217.331V36.76Z" fill="white" fill-opacity="0.2"/>
<path d="M228.992 36.72L229.622 36.19C229.862 36.51 230.242 36.8 230.702 36.8C231.202 36.8 231.482 36.58 231.482 36.21C231.482 35.84 231.252 35.61 230.742 35.38L230.342 35.21C229.572 34.87 229.192 34.38 229.192 33.72C229.192 32.9 229.932 32.37 230.702 32.37C231.302 32.37 231.762 32.56 232.132 33.02L231.562 33.62C231.292 33.3 231.062 33.17 230.702 33.17C230.362 33.17 230.032 33.37 230.032 33.72C230.032 34.07 230.252 34.28 230.772 34.5L231.162 34.68C231.862 34.99 232.332 35.43 232.332 36.14C232.332 37 231.692 37.59 230.712 37.59C229.932 37.59 229.322 37.25 228.992 36.72Z" fill="white" fill-opacity="0.2"/>
<path d="M241.453 34.9898C241.453 33.5198 242.613 32.3798 244.063 32.3798C244.793 32.3798 245.453 32.6298 245.923 33.1198L245.383 33.7098C245.063 33.3698 244.573 33.1698 244.063 33.1698C243.053 33.1698 242.303 33.9698 242.303 34.9898C242.303 36.0098 243.053 36.8098 244.063 36.8098C244.433 36.8098 244.813 36.7198 245.103 36.5398V35.3598H243.703L244.073 34.5598H245.943V36.9498C245.463 37.3598 244.783 37.5998 244.073 37.5998C242.633 37.5998 241.463 36.4698 241.463 34.9898H241.453Z" fill="white" fill-opacity="0.2"/>
<path d="M256.439 34.28V37.53H255.609V32.37L259.089 35.68V32.43H259.919V37.59L256.439 34.28Z" fill="white" fill-opacity="0.2"/>
</g>
<defs>
<clipPath id="clip0_13_328">
<rect width="169.92" height="37.59" fill="white" transform="translate(90)"/>
</clipPath>
</defs>
</svg>
