<svg width="30" height="30" viewBox="0 0 30 30" fill="none" xmlns="http://www.w3.org/2000/svg">
<circle opacity="0.2" cx="15" cy="15" r="15" fill="white"/>
<path d="M21 10.9896C21 9.93264 20.0674 9 19.0104 9H10.9896C9.93264 9 9 9.93264 9 10.9896V19.0104C9 20.0673 9.93264 21 10.9896 21H15.0311V16.4611H13.5389V14.4715H15.0311V13.6632C15.0311 12.2953 16.0259 11.114 17.2694 11.114H18.886V13.1036H17.2694C17.0829 13.1036 16.8964 13.2902 16.8964 13.6632V14.4715H18.886V16.4611H16.8964V21H19.0104C20.0674 21 21 20.0673 21 19.0104V10.9896Z" fill="#1B2B44"/>
</svg>
