<svg width="30" height="30" viewBox="0 0 30 30" fill="none" xmlns="http://www.w3.org/2000/svg">
<circle opacity="0.2" cx="15" cy="15" r="15" fill="white"/>
<path d="M19.2923 9H10.7077C9.73846 9 9 9.73846 9 10.7077V19.2923C9 20.2615 9.73846 21 10.7077 21H19.2923C20.2615 21 21 20.2615 21 19.2923V10.7077C21 9.73846 20.2615 9 19.2923 9ZM15 18.6C16.9846 18.6 18.6 17.0308 18.6 15.1385C18.6 14.8154 18.5538 14.4462 18.4615 14.1692H19.4769V19.0615C19.4769 19.2923 19.2923 19.5231 19.0154 19.5231H10.9846C10.7538 19.5231 10.5231 19.3385 10.5231 19.0615V14.1231H11.5846C11.4923 14.4462 11.4462 14.7692 11.4462 15.0923C11.4 17.0308 13.0154 18.6 15 18.6ZM15 17.2154C13.7077 17.2154 12.6923 16.2 12.6923 14.9538C12.6923 13.7077 13.7077 12.6923 15 12.6923C16.2923 12.6923 17.3077 13.7077 17.3077 14.9538C17.3077 16.2462 16.2923 17.2154 15 17.2154ZM19.4308 12.2769C19.4308 12.5538 19.2 12.7846 18.9231 12.7846H17.6308C17.3538 12.7846 17.1231 12.5538 17.1231 12.2769V11.0308C17.1231 10.7538 17.3538 10.5231 17.6308 10.5231H18.9231C19.2 10.5231 19.4308 10.7538 19.4308 11.0308V12.2769Z" fill="#1B2B44"/>
</svg>
