<svg width="50" height="43" viewBox="0 0 50 43" fill="none" xmlns="http://www.w3.org/2000/svg">
<g clip-path="url(#clip0_14_667)">
<path d="M39.4444 25.6064C38.4768 23.92 36.6925 22.8801 34.7588 22.8678L22.4333 22.891L23.7338 25.1991C24.3127 26.2268 25.3971 26.8595 26.5712 26.8554L33.8429 26.8322C34.9246 26.8281 35.9261 27.4075 36.4669 28.3504L42.6025 39.0369H30.3586C29.7049 39.0369 29.0825 38.8264 28.5689 38.4561L26.4775 42.0993C27.3567 42.6774 28.3963 43.0012 29.4834 43.0012H49.4271L39.4416 25.6077L39.4444 25.6064Z" fill="#76AD00"/>
<path d="M20.8961 33.5351L22.2374 31.1478C22.8068 30.1351 22.7972 28.8943 22.2143 27.8899L18.5778 21.6338C18.0383 20.7073 18.0356 19.5607 18.5696 18.6301L24.7161 7.92316L30.8652 18.6342C31.175 19.174 31.3028 19.7876 31.2511 20.3889H35.4312C35.4788 19.3653 35.2423 18.3322 34.7151 17.4152L24.7161 -0.00012207L14.7157 17.4166C13.8161 18.9841 13.7563 20.8918 14.535 22.5043L20.8961 33.5351Z" fill="#76AD00"/>
<path d="M24.7094 40.2284L30.9727 29.3192H28.2671C27.1025 29.3192 26.0262 29.9465 25.4473 30.9618L21.7293 37.4844C21.183 38.4437 20.1679 39.0354 19.0685 39.0354H6.8259L12.9615 28.349C13.2822 27.7901 13.766 27.361 14.3313 27.1027L12.2399 23.4608C11.3131 23.9336 10.5235 24.6702 9.98541 25.6063L0 42.9998H19.9436C21.9114 42.9998 23.7269 41.9435 24.708 40.2284H24.7094Z" fill="#76AD00"/>
</g>
<defs>
<clipPath id="clip0_14_667">
<rect width="49.4297" height="43" fill="white"/>
</clipPath>
</defs>
</svg>
