<svg width="259" height="43" viewBox="0 0 259 43" fill="none" xmlns="http://www.w3.org/2000/svg">
<path d="M71.7866 18.2014L71.6341 17.5362H71.6036L71.4511 18.2014L68.9347 24.4148H74.3029L71.7866 18.2014ZM69.3465 11.1868H73.8911L82.3856 31.7621H77.2919L75.9652 28.4966H67.2725L65.9609 31.7621H60.8521L69.3465 11.1868Z" fill="white"/>
<path d="M98.0477 23.8555V11.2019H102.882V23.8252C102.882 25.0447 102.663 26.1685 102.226 27.1965C101.799 28.2245 101.189 29.1165 100.396 29.8723C99.6032 30.6182 98.6475 31.2027 97.5292 31.626C96.4108 32.0392 95.1603 32.2458 93.7776 32.2458C92.4966 32.2458 91.2969 32.0543 90.1785 31.6714C89.0703 31.2783 88.1044 30.7189 87.2809 29.9933C86.4676 29.2576 85.8271 28.3706 85.3594 27.3326C84.8917 26.2945 84.6579 25.1254 84.6579 23.8252V11.2019H89.477V23.8403C89.477 24.4551 89.5685 25.0296 89.7515 25.5638C89.9447 26.0879 90.2192 26.5414 90.575 26.9244C90.941 27.3074 91.3884 27.6097 91.917 27.8314C92.4559 28.0532 93.0761 28.164 93.7776 28.164C94.4588 28.164 95.0637 28.0582 95.5924 27.8466C96.1211 27.6248 96.5684 27.3225 96.9344 26.9395C97.3004 26.5464 97.5749 26.0879 97.7579 25.5638C97.9511 25.0397 98.0477 24.4703 98.0477 23.8555Z" fill="white"/>
<path d="M117.339 24.1881L117.355 20.7261H128.015C128.096 22.4495 127.888 24.0167 127.389 25.4277C126.891 26.8387 126.174 28.0481 125.239 29.056C124.304 30.0638 123.175 30.8449 121.853 31.3992C120.542 31.9536 119.103 32.2307 117.538 32.2307C115.972 32.2307 114.498 31.9485 113.115 31.3841C111.743 30.8197 110.543 30.0538 109.516 29.0862C108.499 28.1086 107.691 26.9647 107.091 25.6545C106.501 24.3443 106.207 22.9434 106.207 21.4517C106.207 19.95 106.501 18.5491 107.091 17.249C107.691 15.9388 108.499 14.7999 109.516 13.8324C110.543 12.8547 111.743 12.0888 113.115 11.5345C114.498 10.9701 115.972 10.6879 117.538 10.6879C119.124 10.6879 120.608 10.9701 121.991 11.5345C123.373 12.0888 124.604 12.8951 125.681 13.9533L122.525 17.128C121.965 16.4427 121.259 15.8884 120.405 15.4651C119.551 15.0317 118.595 14.815 117.538 14.815C116.643 14.815 115.799 14.9864 115.006 15.329C114.213 15.6616 113.522 16.1252 112.932 16.7199C112.342 17.3145 111.875 18.02 111.529 18.8364C111.193 19.6426 111.026 20.5195 111.026 21.4669C111.026 22.4142 111.193 23.2961 111.529 24.1125C111.875 24.9187 112.342 25.6192 112.932 26.2138C113.522 26.8085 114.213 27.2771 115.006 27.6198C115.799 27.9524 116.643 28.1187 117.538 28.1187C119.215 28.1187 120.517 27.7659 121.442 27.0604C122.367 26.3449 122.957 25.3874 123.211 24.1881H117.339Z" fill="white"/>
<path d="M144.836 23.8555V11.2019H149.67V23.8252C149.67 25.0447 149.452 26.1685 149.014 27.1965C148.587 28.2245 147.977 29.1165 147.184 29.8723C146.391 30.6182 145.436 31.2027 144.317 31.626C143.199 32.0392 141.948 32.2458 140.566 32.2458C139.285 32.2458 138.085 32.0543 136.967 31.6714C135.858 31.2783 134.893 30.7189 134.069 29.9933C133.256 29.2576 132.615 28.3706 132.147 27.3326C131.68 26.2945 131.446 25.1254 131.446 23.8252V11.2019H136.265V23.8403C136.265 24.4551 136.357 25.0296 136.54 25.5638C136.733 26.0879 137.007 26.5414 137.363 26.9244C137.729 27.3074 138.176 27.6097 138.705 27.8314C139.244 28.0532 139.864 28.164 140.566 28.164C141.247 28.164 141.852 28.0582 142.38 27.8466C142.909 27.6248 143.356 27.3225 143.723 26.9395C144.089 26.5464 144.363 26.0879 144.546 25.5638C144.739 25.0397 144.836 24.4703 144.836 23.8555Z" fill="white"/>
<path d="M152.705 25.3672H157.524C157.524 26.2138 157.875 26.8891 158.576 27.393C159.278 27.897 160.269 28.1489 161.55 28.1489C162.943 28.1489 163.934 27.9473 164.524 27.5442C165.114 27.1411 165.409 26.5918 165.409 25.8964C165.409 25.4025 165.292 25.0044 165.058 24.7021C164.824 24.3997 164.488 24.1477 164.051 23.9462C163.614 23.7446 163.08 23.5632 162.45 23.4019C161.83 23.2407 161.123 23.0492 160.33 22.8275C159.944 22.7267 159.502 22.6158 159.003 22.4949C158.515 22.3739 158.017 22.2227 157.509 22.0413C157 21.8599 156.502 21.6432 156.014 21.3913C155.536 21.1292 155.104 20.8117 154.718 20.4388C154.342 20.0659 154.037 19.6225 153.803 19.1085C153.579 18.5945 153.467 17.9998 153.467 17.3246C153.467 16.2966 153.635 15.3744 153.971 14.558C154.306 13.7316 154.82 13.0311 155.511 12.4566C156.213 11.8822 157.102 11.4438 158.18 11.1414C159.258 10.839 160.533 10.6879 162.008 10.6879C163.228 10.6879 164.305 10.8441 165.241 11.1565C166.186 11.4589 166.979 11.8923 167.62 12.4566C168.271 13.021 168.764 13.7064 169.099 14.5127C169.435 15.3089 169.602 16.2008 169.602 17.1885H164.753C164.753 16.8862 164.697 16.5939 164.585 16.3117C164.473 16.0194 164.29 15.7674 164.036 15.5558C163.792 15.3341 163.467 15.1577 163.06 15.0267C162.653 14.8957 162.155 14.8301 161.565 14.8301C160.915 14.8301 160.376 14.8856 159.949 14.9964C159.532 15.1073 159.202 15.2585 158.958 15.45C158.714 15.6415 158.541 15.8582 158.439 16.1C158.348 16.3318 158.302 16.5788 158.302 16.8408C158.302 17.1936 158.414 17.501 158.637 17.763C158.871 18.015 159.186 18.2367 159.583 18.4282C159.979 18.6096 160.447 18.7658 160.986 18.8968C161.525 19.0279 162.109 19.1488 162.74 19.2597C163.828 19.5116 164.829 19.7989 165.744 20.1214C166.669 20.4338 167.467 20.8369 168.138 21.3308C168.82 21.8246 169.348 22.4394 169.724 23.1752C170.111 23.9109 170.304 24.823 170.304 25.9115C170.304 26.9496 170.08 27.8667 169.633 28.6629C169.196 29.449 168.581 30.1092 167.788 30.6434C167.005 31.1775 166.069 31.5807 164.982 31.8528C163.904 32.135 162.73 32.2761 161.459 32.2761C159.873 32.2761 158.526 32.0745 157.417 31.6714C156.309 31.2581 155.404 30.724 154.703 30.0689C154.011 29.4138 153.503 28.678 153.178 27.8617C152.863 27.0352 152.705 26.2038 152.705 25.3672Z" fill="white"/>
<path d="M178.143 31.7621V15.3139H172.347V11.2019H188.757V15.3139H182.962V31.7621H178.143Z" fill="white"/>
<path d="M192.142 31.7621V11.2019H205.929V13.5602H194.842V20.4086H204.48V22.7519H194.842V29.4188H206.066V31.7621H192.142Z" fill="white"/>
<path d="M211.693 11.2019L217.58 19.2597L223.467 11.2019H226.684L219.273 21.0738L227.203 31.7621H223.985L217.58 22.9182L211.175 31.7621H207.957L215.887 21.0738L208.476 11.2019H211.693Z" fill="white"/>
<path d="M230.482 31.7621V11.2019H233.181V31.7621H230.482Z" fill="white"/>
<path d="M249.133 25.0347H248.34L241.233 15.6163V31.7621H238.534V11.2019H240.867L248.752 21.5273L256.636 11.2019H259V31.7621H256.301V15.6314L249.133 25.0347Z" fill="white"/>
<g clip-path="url(#clip0_16_832)">
<path d="M39.4444 25.6064C38.4768 23.9201 36.6925 22.8802 34.7588 22.8679L22.4333 22.8911L23.7338 25.1992C24.3127 26.2268 25.3971 26.8596 26.5712 26.8555L33.8429 26.8322C34.9246 26.8281 35.9261 27.4076 36.4669 28.3505L42.6025 39.0369H30.3586C29.7049 39.0369 29.0825 38.8265 28.5689 38.4561L26.4775 42.0994C27.3567 42.6774 28.3963 43.0013 29.4834 43.0013H49.4271L39.4416 25.6078L39.4444 25.6064Z" fill="#76AD00"/>
<path d="M20.8961 33.5352L22.2374 31.1478C22.8068 30.1352 22.7972 28.8944 22.2143 27.8899L18.5778 21.6339C18.0383 20.7073 18.0356 19.5608 18.5696 18.6302L24.7161 7.92322L30.8652 18.6343C31.175 19.1741 31.3028 19.7876 31.2511 20.3889H35.4312C35.4788 19.3654 35.2423 18.3323 34.7151 17.4153L24.7161 -6.10352e-05L14.7157 17.4167C13.8161 18.9841 13.7563 20.8918 14.535 22.5044L20.8961 33.5352Z" fill="#76AD00"/>
<path d="M24.7094 40.2285L30.9727 29.3193H28.2671C27.1025 29.3193 26.0262 29.9465 25.4473 30.9619L21.7293 37.4845C21.183 38.4438 20.1679 39.0355 19.0685 39.0355H6.8259L12.9615 28.349C13.2822 27.7901 13.766 27.361 14.3313 27.1027L12.2399 23.4609C11.3131 23.9337 10.5235 24.6703 9.98541 25.6064L0 42.9999H19.9436C21.9114 42.9999 23.7269 41.9435 24.708 40.2285H24.7094Z" fill="#76AD00"/>
</g>
<defs>
<clipPath id="clip0_16_832">
<rect width="49.4297" height="43" fill="white"/>
</clipPath>
</defs>
</svg>
