<svg width="30" height="30" viewBox="0 0 30 30" fill="none" xmlns="http://www.w3.org/2000/svg">
<circle opacity="0.2" cx="15" cy="15" r="15" fill="white"/>
<path d="M8.24549 14.7599L11.4642 15.9392L12.7189 19.906C12.7734 20.174 13.1008 20.2276 13.319 20.0668L15.1192 18.6194C15.2829 18.4586 15.5557 18.4586 15.7739 18.6194L18.9925 20.9244C19.2107 21.0853 19.5381 20.978 19.5926 20.71L21.993 9.45304C22.0475 9.18502 21.7748 8.917 21.502 9.0242L8.24549 14.063C7.91817 14.1703 7.91817 14.6527 8.24549 14.7599ZM12.5552 15.3496L18.8834 11.5436C18.9925 11.49 19.1016 11.6508 18.9925 11.7044L13.81 16.4753C13.6463 16.6361 13.4826 16.8505 13.4826 17.1185L13.319 18.405C13.319 18.5658 13.0462 18.6194 12.9917 18.405L12.337 16.0464C12.1733 15.7784 12.2825 15.4568 12.5552 15.3496Z" fill="#1B2B44"/>
</svg>
