<svg width="30" height="30" viewBox="0 0 30 30" fill="none" xmlns="http://www.w3.org/2000/svg">
<circle opacity="0.2" cx="15" cy="15" r="15" fill="white"/>
<path d="M22 10.3397C21.5 10.5513 20.9286 10.6923 20.3572 10.7628C20.9286 10.4103 21.4286 9.84616 21.6429 9.21154C21.0714 9.5641 20.5 9.77564 19.7857 9.91667C19.2857 9.35257 18.5 9 17.7143 9C16.1429 9 14.8571 10.2692 14.8571 11.8205C14.8571 12.0321 14.8571 12.2436 14.9286 12.4551C12.5714 12.3141 10.4286 11.1859 9 9.49359C8.78571 9.91666 8.64285 10.4103 8.64285 10.9038C8.64285 11.891 9.14286 12.7372 9.92857 13.2308C9.42857 13.2308 9 13.0897 8.64285 12.8782C8.64285 14.2179 9.64285 15.4167 10.9286 15.6282C10.7143 15.6987 10.4286 15.6987 10.1429 15.6987C9.92857 15.6987 9.78571 15.6987 9.57143 15.6282C9.92857 16.7564 11 17.6026 12.2857 17.6026C11.2857 18.3782 10.0714 18.8013 8.71429 18.8013C8.5 18.8013 8.28571 18.8013 8 18.7308C9.28571 19.5064 10.7857 20 12.4286 20C17.7143 20 20.5714 15.6987 20.5714 11.9615V11.609C21.1429 11.3974 21.6429 10.9038 22 10.3397Z" fill="#1B2B44"/>
</svg>
